<svg id="Layer_1" enable-background="new 0 0 512 512" height="512" viewBox="0 0 512 512" width="512" xmlns="http://www.w3.org/2000/svg"><g><g><g><path d="m314.068 70.739h-11.874v-45.554c0-3.905 2.468-7.383 6.153-8.673l37.435-13.102c5.974-2.091 12.224 2.343 12.224 8.673v46.103h-11.874v-39.114c0-1.566-1.547-2.664-3.025-2.146l-26.1 9.135c-1.76.616-2.939 2.277-2.939 4.143z" fill="#0073aa"/></g><g fill="#41b4e6"><path d="m300.674 62.736c-7.457 0-13.502 3.583-13.502 8.003s6.045 8.003 13.502 8.003 13.502-3.583 13.502-8.003-6.045-8.003-13.502-8.003z"/><path d="m344.299 50.182c-7.457 0-13.502 3.583-13.502 8.003s6.045 8.003 13.502 8.003 13.502-3.583 13.502-8.003-6.045-8.003-13.502-8.003z"/></g></g><g><g><path d="m447.618 219.922h-11.874v-44.964c0-4.258 2.691-8.052 6.711-9.459l21.757-7.615c2.167 6.189-1.095 12.963-7.284 15.13l-5.836 2.043c-2.081.728-3.474 2.692-3.474 4.896z" fill="#0073aa"/></g><path d="m434.224 211.919c-7.457 0-13.502 3.583-13.502 8.003s6.045 8.003 13.502 8.003 13.502-3.583 13.502-8.003-6.045-8.003-13.502-8.003z" fill="#41b4e6"/></g><g fill="#ffda52"><path d="m455.464 19.31c-4.056-2.058-7.357-5.358-9.415-9.415-.62-1.223-2.339-1.223-2.959 0-2.058 4.057-5.358 7.357-9.415 9.415-1.223.62-1.223 2.339 0 2.959 4.056 2.058 7.357 5.358 9.415 9.415.62 1.223 2.339 1.223 2.959 0 2.058-4.057 5.358-7.357 9.415-9.415 1.224-.62 1.224-2.338 0-2.959z"/><path d="m477.132 66.483c-2.553-1.406-4.658-3.511-6.064-6.064-.57-1.035-2.045-1.035-2.616 0-1.406 2.553-3.511 4.658-6.064 6.064-1.035.57-1.035 2.045 0 2.616 2.553 1.406 4.658 3.511 6.064 6.064.57 1.035 2.045 1.035 2.616 0 1.406-2.553 3.511-4.658 6.064-6.064 1.036-.571 1.036-2.046 0-2.616z"/><path d="m491.064 27.653c-1.839-1.036-3.361-2.557-4.397-4.397-.449-.798-1.617-.798-2.066 0-1.035 1.839-2.557 3.361-4.396 4.397-.798.449-.798 1.617 0 2.066 1.839 1.036 3.361 2.557 4.396 4.397.449.798 1.617.798 2.066 0 1.036-1.839 2.557-3.361 4.397-4.397.798-.45.798-1.617 0-2.066z"/></g><g id="XMLID_5466_"><g id="XMLID_5468_"><path d="m207.539 511.996c-11.912 0-21.569-9.657-21.569-21.569v-172.404c0-11.912 9.656-21.569 21.569-21.569s21.569 9.657 21.569 21.569v172.405c0 11.912-9.656 21.568-21.569 21.568z" fill="#ffb69e"/></g><g id="XMLID_5467_"><path d="m312.254 498.755-72.16-172.405c-4.599-10.988.581-23.625 11.569-28.224 10.987-4.6 23.624.58 28.225 11.569l72.16 172.405c4.599 10.988-.581 23.625-11.569 28.224-10.93 4.575-23.601-.522-28.225-11.569z" fill="#ffb69e"/></g></g><g fill="#ffb69e"><path d="m407.953 51.118c-6.449-7.545-17.796-8.434-25.342-1.983l-83.87 71.699 1.963 23.354 18.459 5.309s59.805-50.144 86.807-73.037c7.546-6.451 8.433-17.797 1.983-25.342z"/><path d="m256.511 148.877-.297-3.106h-41.53l-.311 2.405c-1.642 12.686 8.238 23.927 21.03 23.927 12.509 0 22.301-10.774 21.108-23.226z"/><path d="m179.35 113.222 10.609-15.634-45.062-87.816c-4.531-8.833-15.368-12.318-24.197-7.786-8.832 4.532-12.318 15.366-7.786 24.198l45.267 88.216z"/></g><path d="m322.602 349.223-40.941-168.369s15.695-13.096 37.502-31.357l-20.422-28.662-29.169 24.936h-13.358c-.103 10.915-10.332 20.031-20.999 20.031-11.301 0-19.428-9.254-20.531-20.031l-24.725-48.183-31.778 16.812 27.056 52.726s-23.002 181.626-23.061 182.096c-1.06 6.118 3.676 11.702 9.838 11.702h140.75c6.182.001 10.9-5.575 9.838-11.701z" fill="#ff6473"/><circle cx="233.765" cy="99.879" fill="#ffb69e" r="37.252"/><g><path d="m63.744 149.181h-11.874v-45.281c0-4.068 2.571-7.692 6.411-9.036l22.057-7.72c2.166 6.19-1.095 12.963-7.285 15.129l-6.66 2.331c-1.587.556-2.65 2.054-2.65 3.735v40.842z" fill="#0073aa"/></g><g fill="#ffda52"><path d="m30.67 49.48c-2.058 4.056-5.358 7.357-9.415 9.415-1.223.62-1.223 2.339 0 2.959 4.057 2.058 7.357 5.358 9.415 9.415.62 1.223 2.339 1.223 2.959 0 2.058-4.056 5.358-7.357 9.415-9.415 1.223-.62 1.223-2.339 0-2.959-4.057-2.058-7.357-5.358-9.415-9.415-.62-1.223-2.338-1.223-2.959 0z"/><path d="m77.842 27.812c-1.406 2.553-3.511 4.658-6.064 6.064-1.035.57-1.035 2.045 0 2.616 2.553 1.406 4.658 3.511 6.064 6.064.57 1.035 2.045 1.035 2.616 0 1.406-2.553 3.511-4.658 6.064-6.064 1.035-.57 1.035-2.045 0-2.616-2.553-1.406-4.658-3.511-6.064-6.064-.57-1.035-2.045-1.035-2.616 0z"/><path d="m39.012 13.881c-1.036 1.839-2.557 3.361-4.397 4.397-.798.449-.798 1.617 0 2.066 1.839 1.035 3.361 2.557 4.397 4.396.449.798 1.617.798 2.066 0 1.036-1.839 2.557-3.361 4.397-4.396.798-.449.798-1.617 0-2.066-1.839-1.036-3.361-2.558-4.397-4.397-.449-.798-1.616-.798-2.066 0z"/></g><ellipse cx="50.35" cy="149.181" fill="#41b4e6" rx="13.502" ry="8.003"/></g></svg>